<?xml version="1.0" encoding="utf-8"?>
<!-- Generator: Adobe Illustrator 23.0.3, SVG Export Plug-In . SVG Version: 6.00 Build 0)  -->
<svg version="1.1" id="Layer_1" xmlns="http://www.w3.org/2000/svg" xmlns:xlink="http://www.w3.org/1999/xlink" x="0px" y="0px"
	 viewBox="0 0 100 100" style="enable-background:new 0 0 100 100;" xml:space="preserve">
<style type="text/css">
	.st0{fill:#FFFFFF;}
	.st1{fill:none;}
</style>
<title>Asset 899ldpi</title>
<g>
	<g>
		<path class="st0" d="M98,29.4c0,1.5-0.6,3-1.7,4.1L58.3,73c-4.4,4.6-11.7,4.7-16.2,0.3c-0.1-0.1-0.2-0.2-0.3-0.3L3.7,33.5
			c-2.4-2.3-2.4-6-0.2-8.4c2.3-2.4,6-2.4,8.4-0.2c0.1,0.1,0.2,0.2,0.3,0.3L50,64.5l37.8-39.2c2.3-2.4,6-2.4,8.4-0.2
			C97.3,26.3,98,27.8,98,29.4z"/>
		<rect class="st1" width="100" height="100"/>
	</g>
</g>
</svg>
